<svg xmlns="http://www.w3.org/2000/svg" width="150" height="150" viewBox="0 0 100 100"><rect width="100" height="100" fill="#14151f" rx="15"/><circle cx="50" cy="50" r="40" fill="#1e2235" stroke="#2a314d" stroke-width="1"/><rect x="35" y="8" width="30" height="22" fill="#2c3e50" rx="2"/><ellipse cx="50" cy="30" rx="22" ry="4" fill="#2c3e50"/><rect x="35" y="25" width="30" height="4" fill="#00d2d3"/><circle cx="28" cy="35" r="8" fill="#ecf0f1" stroke="#bdc3c7" stroke-width="1.5"/><circle cx="28" cy="35" r="4" fill="#2c3e50"/><circle cx="72" cy="35" r="8" fill="#ecf0f1" stroke="#bdc3c7" stroke-width="1.5"/><circle cx="72" cy="35" r="4" fill="#2c3e50"/><path d="M22,50 Q50,22 78,50 Z" fill="#ecf0f1" stroke="#bdc3c7" stroke-width="1"/><path d="M22,58 Q50,86 78,58 Z" fill="#ecf0f1" stroke="#bdc3c7" stroke-width="1"/><polygon points="30,49 35,54 40,48 45,54 50,47 55,54 60,48 65,54 70,49" fill="#00d2d3" opacity="0.8"/><polygon points="30,59 35,54 40,60 45,54 50,61 55,54 60,60 65,54 70,59" fill="#00d2d3" opacity="0.8"/><circle cx="38" cy="54" r="7" fill="#ffffff" stroke="#00d2d3" stroke-width="1"/><circle cx="38" cy="54" r="3.5" fill="#0abde3"/><circle cx="62" cy="54" r="7" fill="#ffffff" stroke="#10ac84" stroke-width="1"/><circle cx="62" cy="54" r="3.5" fill="#10ac84"/><polygon points="38,82 50,88 38,94" fill="#ee5253"/><polygon points="62,82 50,88 62,94" fill="#ee5253"/><circle cx="50" cy="88" r="3" fill="#ff6b6b"/></svg>